<?xml version="1.0" standalone="no"?>
<!DOCTYPE svg PUBLIC "-//W3C//DTD SVG 20010904//EN"
 "http://www.w3.org/TR/2001/REC-SVG-20010904/DTD/svg10.dtd">
<svg version="1.0" xmlns="http://www.w3.org/2000/svg"
 width="702.000000pt" height="702.000000pt" viewBox="0 0 702.000000 702.000000"
 preserveAspectRatio="xMidYMid meet">
<metadata>
Created by potrace 1.14, written by Peter Selinger 2001-2017
</metadata>
<g transform="translate(0.000000,702.000000) scale(0.100000,-0.100000)"
fill="#000000" stroke="none">
<path d="M3387 5728 c-20 -18 -61 -64 -92 -103 -31 -38 -61 -77 -68 -85 -7 -8
-41 -53 -77 -100 -36 -46 -72 -94 -82 -105 -23 -28 -199 -254 -223 -287 -11
-15 -47 -61 -80 -104 -33 -42 -71 -91 -85 -109 -14 -18 -85 -111 -159 -206
-264 -341 -291 -378 -291 -396 0 -17 -23 -50 -167 -235 -96 -123 -579 -741
-834 -1066 -118 -151 -223 -286 -234 -301 -11 -15 -67 -87 -125 -160 -58 -74
-114 -145 -125 -160 -10 -14 -92 -118 -180 -231 -88 -113 -199 -254 -245 -314
-47 -60 -131 -168 -187 -240 -118 -150 -133 -183 -109 -240 l16 -38 3433 4
c3255 4 3434 5 3469 22 75 36 86 124 24 194 -26 30 -279 339 -673 822 -34 41
-148 181 -255 311 -1221 1490 -1793 2193 -1793 2204 0 12 -199 261 -445 559
-42 50 -121 147 -177 216 -165 205 -169 207 -236 148z"/>
</g>
</svg>
